<?xml version="1.0" encoding="utf-8"?>
<!-- Generator: Adobe Illustrator 25.2.1, SVG Export Plug-In . SVG Version: 6.00 Build 0)  -->
<svg version="1.1" id="Layer_1" xmlns="http://www.w3.org/2000/svg" xmlns:xlink="http://www.w3.org/1999/xlink" x="0px" y="0px"
	 viewBox="0 0 393.6 98.4" style="enable-background:new 0 0 393.6 98.4;" xml:space="preserve">
<style type="text/css">
	.st0{fill:#FFFFFF;}
</style>
<g>
	<polygon class="st0" points="26.2,22.2 67.8,22.2 67.8,7.8 9.3,7.8 9.3,90.4 26.3,90.4 26.3,57.1 62.9,57.1 62.9,43 26.2,43 	"/>
	<path class="st0" d="M95.4,32.2c-18.1,0-31.5,13.2-31.5,30.7c0,18.5,12.9,30.8,28.4,30.8c8.6,0,15.4-3.8,19.2-10.2l1,8.8h14.2V63
		C126.8,44,113.4,32.2,95.4,32.2z M95.4,79.8c-9,0-15.7-6.9-15.7-16.9c0-10,6.8-16.9,15.7-16.9c8.7,0,15.5,6.6,15.5,16.9h0
		C111,74.5,103.1,79.8,95.4,79.8z"/>
	<rect x="137.1" y="6.9" class="st0" width="15.9" height="85.5"/>
	<path class="st0" d="M193.2,79.8c-9.2,0-15.9-7-15.9-16.9c0-9.9,6.7-16.8,15.9-16.8c6.4,0,11,3.1,13.3,8.8h15.5
		c-2.4-13.5-13.8-22.7-29.2-22.7c-18.1,0-31.3,13-31.3,30.7c0,17.7,13.3,30.8,31.3,30.8c15.4,0,26.8-9.3,29.2-22.8h-15.5
		C204.1,76.7,199.7,79.8,193.2,79.8z"/>
	<path class="st0" d="M374.4,24.1c5.4,0,10-4.3,10-9.6c0-5.4-4.5-9.8-10-9.8c-5.6,0-10.1,4.4-10.1,9.8
		C364.2,19.8,368.8,24.1,374.4,24.1z"/>
	<path class="st0" d="M261.1,32.2c-18.5,0-31.7,13.3-31.7,30.7h0c0,17.4,13.3,30.8,31.7,30.8s31.7-13.4,31.7-30.8
		C292.8,45.5,279.6,32.2,261.1,32.2z M261.1,79.8c-9.2,0-15.9-6.9-15.9-16.9c0-9.9,6.7-16.9,15.9-16.9S277,53,277,62.9
		C277,72.9,270.3,79.8,261.1,79.8z"/>
	<rect x="366.4" y="33.5" class="st0" width="15.9" height="58.9"/>
	<path class="st0" d="M329,32.2c-17.8,0-27.8,11.2-27.8,26.7v33.5h16.1V60.2c0-8.6,3.9-14,11.8-14c7.8,0,11.8,5.4,11.8,14v32.2h15.9
		V58.9C356.7,43.4,346.7,32.2,329,32.2z"/>
</g>
</svg>
